<?xml version="1.0" encoding="UTF-8"?>
<svg width="54px" height="54px" viewBox="0 0 54 54" version="1.1" xmlns="http://www.w3.org/2000/svg" xmlns:xlink="http://www.w3.org/1999/xlink">
    <defs>
        <linearGradient x1="49.862358%" y1="99.862358%" x2="49.862358%" y2="0.137642037%" id="linearGradient-1">
            <stop stop-color="#191E27" offset="0%"></stop>
            <stop stop-color="#717479" offset="100%"></stop>
        </linearGradient>
    </defs>
    <g id="icon-3" stroke="none" stroke-width="1" fill="none" fill-rule="evenodd">
        <g id="高级经理" transform="translate(-612.000000, -1108.000000)" fill="url(#linearGradient-1)">
            <g id="Group-21" transform="translate(24.000000, 757.000000)">
                <g id="Group-20" transform="translate(40.000000, 80.000000)">
                    <g id="Group-18" transform="translate(527.000000, 275.000000)">
                        <g id="Group-19" transform="translate(25.000000, 0.000000)">
                            <path d="M23,46 C10.2974508,46 0,35.7025492 0,23 C0,10.2974508 10.2974508,0 23,0 C35.7025492,0 46,10.2974508 46,23 C46,35.7025492 35.7025492,46 23,46 Z M16,17.1320755 L19.4654018,17.1320755 C19.6160714,14.7725919 21.1060268,13.2889772 23.4162946,13.2889772 C25.7098214,13.2889772 27.1997768,14.7725919 27.1997768,16.7924528 C27.1997768,18.633565 26.4799107,19.6703078 24.4542411,20.9751738 C22.1607143,22.4409136 21.1395089,24.0496524 21.2232143,26.5700099 L21.2399554,28 L24.7053571,28 L24.7053571,26.9096326 C24.7053571,25.0685204 25.3247768,24.1211519 27.484375,22.7626614 C29.6941964,21.3505462 31,19.4021847 31,16.6315789 C31,12.8063555 28.0200893,10 23.6004464,10 C18.7455357,10 16.1506696,13.0744786 16,17.1320755 Z M23.0980804,35.5152634 C24.3813504,35.5152634 25.3566356,34.5391629 25.3566356,33.2667463 C25.3566356,31.9943296 24.3813504,31.0182292 23.0980804,31.0182292 C21.849031,31.0182292 20.8566356,31.9943296 20.8566356,33.2667463 C20.8566356,34.5391629 21.849031,35.5152634 23.0980804,35.5152634 Z" id="Combined-Shape"></path>
                        </g>
                    </g>
                </g>
            </g>
        </g>
    </g>
</svg>
